<?xml version="1.0" encoding="UTF-8" standalone="no"?>
<!-- Created with Inkscape (http://www.inkscape.org/) -->

<svg
   xmlns:dc="http://purl.org/dc/elements/1.1/"
   xmlns:cc="http://creativecommons.org/ns#"
   xmlns:rdf="http://www.w3.org/1999/02/22-rdf-syntax-ns#"
   xmlns:svg="http://www.w3.org/2000/svg"
   xmlns="http://www.w3.org/2000/svg"
   xmlns:xlink="http://www.w3.org/1999/xlink"
   xmlns:sodipodi="http://sodipodi.sourceforge.net/DTD/sodipodi-0.dtd"
   xmlns:inkscape="http://www.inkscape.org/namespaces/inkscape"
   version="1.2"
   width="223.21875"
   height="311.8125"
   id="svg3040"
   style="display:inline"
   inkscape:version="0.48.2 r9819"
   sodipodi:docname="52-Combined-Color-Vector-Playing-Cards-1.3_(SVG-Format).svg">
  <sodipodi:namedview
     pagecolor="#ffffff"
     bordercolor="#666666"
     borderopacity="1"
     objecttolerance="10"
     gridtolerance="10"
     guidetolerance="10"
     inkscape:pageopacity="0"
     inkscape:pageshadow="2"
     inkscape:window-width="1041"
     inkscape:window-height="856"
     id="namedview743"
     showgrid="false"
     inkscape:zoom="0.19091883"
     inkscape:cx="1021.9309"
     inkscape:cy="145.36219"
     inkscape:window-x="184"
     inkscape:window-y="0"
     inkscape:window-maximized="0"
     inkscape:current-layer="svg3040"
     inkscape:snap-bbox="true"
     inkscape:snap-bbox-midpoints="false"
     inkscape:snap-global="true"
     inkscape:snap-nodes="true"
     inkscape:snap-bbox-edge-midpoints="true"
     inkscape:bbox-nodes="true"
     inkscape:bbox-paths="true"
     fit-margin-top="0"
     fit-margin-left="0"
     fit-margin-right="0"
     fit-margin-bottom="0" />
  <title
     id="Vector Playing Cards 1.2 - 2011 - Copyright Chris Aguilar">Vectorized Playing Cards 1.2
</title>
  <defs
     id="defs766">
    <inkscape:perspective
       sodipodi:type="inkscape:persp3d"
       inkscape:vp_x="0 : 155.90625 : 1"
       inkscape:vp_y="0 : 1000 : 0"
       inkscape:vp_z="223.25 : 155.90625 : 1"
       inkscape:persp3d-origin="111.625 : 103.9375 : 1"
       id="perspective3828" />
    <pattern
       xlink:href="#pattern13024-5"
       id="pattern13545-1"
       patternTransform="matrix(-0.11059956,0.11059956,-0.11059956,-0.11059956,-254.02376,74.426221)" />
    <pattern
       patternUnits="userSpaceOnUse"
       width="108.6184"
       height="110.74085"
       patternTransform="translate(-254.02376,74.426221)"
       id="pattern13024-5">
      <path
         transform="translate(1070.3552,-11.763587)"
         d="m -1016.046,25.720671 -10.7642,16.120541 7.1773,18.006272 -18.6578,-5.255841 -14.9071,12.390288 -0.767,-19.36883 -16.3904,-10.348653 18.1838,-6.714754 4.7773,-18.786107 12.0052,15.218884 z"
         id="path13016-2"
         style="fill:#131f67;fill-opacity:1;stroke:none" />
      <path
         style="fill:#131f67;fill-opacity:1;stroke:none"
         id="path13018-7"
         d="m -1016.046,25.720671 -10.7642,16.120541 7.1773,18.006272 -18.6578,-5.255841 -14.9071,12.390288 -0.767,-19.36883 -16.3904,-10.348653 18.1838,-6.714754 4.7773,-18.786107 12.0052,15.218884 z"
         transform="matrix(0.8660254,0.5,-0.5,0.8660254,946.33909,568.72784)" />
      <path
         d="m -1016.046,25.720671 -10.7642,16.120541 7.1773,18.006272 -18.6578,-5.255841 -14.9071,12.390288 -0.767,-19.36883 -16.3904,-10.348653 18.1838,-6.714754 4.7773,-18.786107 12.0052,15.218884 z"
         id="path13020-6"
         style="fill:#131f67;fill-opacity:1;stroke:none"
         transform="translate(1124.6644,-11.763587)" />
      <path
         style="fill:#131f67;fill-opacity:1;stroke:none"
         id="path13022-1"
         d="m -1016.046,25.720671 -10.7642,16.120541 7.1773,18.006272 -18.6578,-5.255841 -14.9071,12.390288 -0.767,-19.36883 -16.3904,-10.348653 18.1838,-6.714754 4.7773,-18.786107 12.0052,15.218884 z"
         transform="matrix(0.8660254,0.5,-0.5,0.8660254,1000.6483,568.72784)" />
    </pattern>
    <pattern
       xlink:href="#pattern13074-4"
       id="pattern15142"
       patternTransform="matrix(0.10623121,-0.1062312,0.10623121,0.1062312,-605.82881,365.81179)" />
    <pattern
       xlink:href="#pattern13064-2"
       id="pattern13074-4"
       patternTransform="matrix(0.10623121,-0.1062312,0.10623121,0.1062312,-605.82881,365.81179)" />
    <pattern
       xlink:href="#pattern8526-950-188-3"
       id="pattern13064-2"
       patternTransform="matrix(0.10623121,-0.1062312,0.10623121,0.1062312,-836.82881,38.811786)" />
    <pattern
       xlink:href="#pattern8519-687-26-2"
       id="pattern8526-950-188-3"
       patternTransform="matrix(0.10623121,-0.1062312,0.10623121,0.1062312,13.113538,22.901883)" />
    <pattern
       xlink:href="#pattern8507-266-27-2"
       id="pattern8519-687-26-2"
       patternTransform="matrix(0.10623121,-0.1062312,0.10623121,0.1062312,-23.656015,100.68363)" />
    <pattern
       xlink:href="#pattern8501-248-271-1"
       id="pattern8507-266-27-2"
       patternTransform="matrix(0.10623119,-0.10623119,0.10623119,0.10623119,194.54709,-74.729113)" />
    <pattern
       xlink:href="#pattern8475-545-163-6"
       id="pattern8501-248-271-1"
       patternTransform="matrix(0.0652057,-0.0652057,0.0652057,0.0652057,194.54709,-74.729113)" />
    <pattern
       xlink:href="#pattern8463-7-486-8"
       id="pattern8475-545-163-6"
       patternTransform="matrix(0.11006325,-0.11006325,0.11006325,0.11006325,-254.02376,74.426221)" />
    <pattern
       patternUnits="userSpaceOnUse"
       width="108.6184"
       height="110.74085"
       patternTransform="translate(-254.02376,74.426221)"
       id="pattern8463-7-486-8">
      <path
         transform="translate(1070.3552,-11.763587)"
         d="m -1016.046,25.720671 -10.7642,16.120541 7.1773,18.006272 -18.6578,-5.255841 -14.9071,12.390288 -0.767,-19.36883 -16.3904,-10.348653 18.1838,-6.714754 4.7773,-18.786107 12.0052,15.218884 z"
         id="path11396-5"
         style="fill:#d40000;fill-opacity:1;stroke:none" />
      <path
         style="fill:#d40000;fill-opacity:1;stroke:none"
         id="path11398-7"
         d="m -1016.046,25.720671 -10.7642,16.120541 7.1773,18.006272 -18.6578,-5.255841 -14.9071,12.390288 -0.767,-19.36883 -16.3904,-10.348653 18.1838,-6.714754 4.7773,-18.786107 12.0052,15.218884 z"
         transform="matrix(0.8660254,0.5,-0.5,0.8660254,946.33909,568.72784)" />
      <path
         d="m -1016.046,25.720671 -10.7642,16.120541 7.1773,18.006272 -18.6578,-5.255841 -14.9071,12.390288 -0.767,-19.36883 -16.3904,-10.348653 18.1838,-6.714754 4.7773,-18.786107 12.0052,15.218884 z"
         id="path11400-6"
         style="fill:#d40000;fill-opacity:1;stroke:none"
         transform="translate(1124.6644,-11.763587)" />
      <path
         style="fill:#d40000;fill-opacity:1;stroke:none"
         id="path11402-1"
         d="m -1016.046,25.720671 -10.7642,16.120541 7.1773,18.006272 -18.6578,-5.255841 -14.9071,12.390288 -0.767,-19.36883 -16.3904,-10.348653 18.1838,-6.714754 4.7773,-18.786107 12.0052,15.218884 z"
         transform="matrix(0.8660254,0.5,-0.5,0.8660254,1000.6483,568.72784)" />
    </pattern>
    <pattern
       xlink:href="#pattern13074-4-7"
       id="pattern15142-1"
       patternTransform="matrix(0.10623121,-0.1062312,0.10623121,0.1062312,-605.82881,365.81179)" />
    <pattern
       xlink:href="#pattern13064-2-4"
       id="pattern13074-4-7"
       patternTransform="matrix(0.10623121,-0.1062312,0.10623121,0.1062312,-605.82881,365.81179)" />
    <pattern
       xlink:href="#pattern8526-950-188-3-0"
       id="pattern13064-2-4"
       patternTransform="matrix(0.10623121,-0.1062312,0.10623121,0.1062312,-836.82881,38.811786)" />
    <pattern
       xlink:href="#pattern8519-687-26-2-9"
       id="pattern8526-950-188-3-0"
       patternTransform="matrix(0.10623121,-0.1062312,0.10623121,0.1062312,13.113538,22.901883)" />
    <pattern
       xlink:href="#pattern8507-266-27-2-4"
       id="pattern8519-687-26-2-9"
       patternTransform="matrix(0.10623121,-0.1062312,0.10623121,0.1062312,-23.656015,100.68363)" />
    <pattern
       xlink:href="#pattern8501-248-271-1-8"
       id="pattern8507-266-27-2-4"
       patternTransform="matrix(0.10623119,-0.10623119,0.10623119,0.10623119,194.54709,-74.729113)" />
    <pattern
       xlink:href="#pattern8475-545-163-6-8"
       id="pattern8501-248-271-1-8"
       patternTransform="matrix(0.0652057,-0.0652057,0.0652057,0.0652057,194.54709,-74.729113)" />
    <pattern
       xlink:href="#pattern8463-7-486-8-2"
       id="pattern8475-545-163-6-8"
       patternTransform="matrix(0.11006325,-0.11006325,0.11006325,0.11006325,-254.02376,74.426221)" />
    <pattern
       patternUnits="userSpaceOnUse"
       width="108.6184"
       height="110.74085"
       patternTransform="translate(-254.02376,74.426221)"
       id="pattern8463-7-486-8-2">
      <path
         transform="translate(1070.3552,-11.763587)"
         d="m -1016.046,25.720671 -10.7642,16.120541 7.1773,18.006272 -18.6578,-5.255841 -14.9071,12.390288 -0.767,-19.36883 -16.3904,-10.348653 18.1838,-6.714754 4.7773,-18.786107 12.0052,15.218884 z"
         id="path11396-5-4"
         style="fill:#d40000;fill-opacity:1;stroke:none" />
      <path
         style="fill:#d40000;fill-opacity:1;stroke:none"
         id="path11398-7-5"
         d="m -1016.046,25.720671 -10.7642,16.120541 7.1773,18.006272 -18.6578,-5.255841 -14.9071,12.390288 -0.767,-19.36883 -16.3904,-10.348653 18.1838,-6.714754 4.7773,-18.786107 12.0052,15.218884 z"
         transform="matrix(0.8660254,0.5,-0.5,0.8660254,946.33909,568.72784)" />
      <path
         d="m -1016.046,25.720671 -10.7642,16.120541 7.1773,18.006272 -18.6578,-5.255841 -14.9071,12.390288 -0.767,-19.36883 -16.3904,-10.348653 18.1838,-6.714754 4.7773,-18.786107 12.0052,15.218884 z"
         id="path11400-6-5"
         style="fill:#d40000;fill-opacity:1;stroke:none"
         transform="translate(1124.6644,-11.763587)" />
      <path
         style="fill:#d40000;fill-opacity:1;stroke:none"
         id="path11402-1-1"
         d="m -1016.046,25.720671 -10.7642,16.120541 7.1773,18.006272 -18.6578,-5.255841 -14.9071,12.390288 -0.767,-19.36883 -16.3904,-10.348653 18.1838,-6.714754 4.7773,-18.786107 12.0052,15.218884 z"
         transform="matrix(0.8660254,0.5,-0.5,0.8660254,1000.6483,568.72784)" />
    </pattern>
  </defs>
  <metadata
     id="metadata3046">
    <rdf:RDF>
      <cc:Work
         rdf:about="">
        <dc:format>image/svg+xml</dc:format>
        <dc:type
           rdf:resource="http://purl.org/dc/dcmitype/StillImage" />
        <dc:title>Vectorized Playing Cards 1.2
</dc:title>
        <dc:date>4/24/2011</dc:date>
        <dc:creator>
          <cc:Agent>
            <dc:title>Chris Aguilar</dc:title>
          </cc:Agent>
        </dc:creator>
        <dc:rights>
          <cc:Agent>
            <dc:title>LGPL 3.0</dc:title>
          </cc:Agent>
        </dc:rights>
      </cc:Work>
    </rdf:RDF>
  </metadata>
  <g
     transform="translate(-28.19152,-1021.8036)"
     id="BACK_BLUE1">
    <rect
       width="222.22835"
       height="310.81104"
       rx="10.629921"
       ry="10.629921"
       x="-259.11444"
       y="501.8161"
       id="rect13537"
       style="fill:#ffffff;stroke:#000000;stroke-width:1;stroke-opacity:1" />
    <rect
       width="197.05205"
       height="286.64417"
       ry="0"
       x="-246.52632"
       y="513.89954"
       id="rect13539"
       style="fill:none;stroke:#131f67;stroke-width:4.95238304;stroke-linecap:round;stroke-linejoin:miter;stroke-miterlimit:4;stroke-opacity:1;stroke-dasharray:none" />
    <rect
       width="188.27672"
       height="278.90585"
       x="-242.13863"
       y="517.76868"
       id="rect13541"
       style="fill:url(#pattern13545-1);fill-opacity:1;stroke:#131f67;stroke-width:1;stroke-linecap:round;stroke-linejoin:miter;stroke-miterlimit:4;stroke-opacity:1;stroke-dasharray:none" />
  </g>
  <g
     style="display:inline"
     transform="translate(550.9375,-490)"
     id="BACK_RED1">
    <rect
       width="222.22835"
       height="310.81104"
       rx="10.629921"
       ry="10.629921"
       x="-550.44244"
       y="490.50238"
       id="rect13068"
       style="fill:#ffffff;stroke:#000000;stroke-width:1;stroke-opacity:1" />
    <rect
       width="197.05205"
       height="286.64417"
       ry="0"
       x="-537.85431"
       y="502.58582"
       id="rect13070"
       style="fill:none;stroke:#d40000;stroke-width:4.95238304;stroke-linecap:round;stroke-linejoin:miter;stroke-miterlimit:4;stroke-opacity:1;stroke-dasharray:none" />
    <rect
       width="188.27672"
       height="278.90585"
       x="-533.46661"
       y="506.45496"
       id="rect13072"
       style="fill:url(#pattern15142-1);fill-opacity:1;stroke:#d40000;stroke-width:1;stroke-linecap:round;stroke-linejoin:miter;stroke-miterlimit:4;stroke-opacity:1;stroke-dasharray:none" />
  </g>
</svg>
